<?xml version="1.0" encoding="UTF-8" standalone="no"?>
<!-- Created with Inkscape (http://www.inkscape.org/) -->

<svg
   width="28.646074mm"
   height="29.686249mm"
   viewBox="0 0 28.646074 29.686249"
   version="1.1"
   id="svg1"
   xmlns="http://www.w3.org/2000/svg"
   xmlns:svg="http://www.w3.org/2000/svg">
  <defs
     id="defs1">
    <linearGradient
       id="SVGID_1_"
       gradientUnits="userSpaceOnUse"
       x1="27.197901"
       y1="90.166"
       x2="135.5341"
       y2="90.166">
		<stop
   offset="0"
   style="stop-color:#FCDA00"
   id="stop1" />

		<stop
   offset="4.129634e-02"
   style="stop-color:#FACE0C"
   id="stop2" />

		<stop
   offset="0.1529"
   style="stop-color:#F6AF1C"
   id="stop3" />

		<stop
   offset="0.27"
   style="stop-color:#F39521"
   id="stop4" />

		<stop
   offset="0.3913"
   style="stop-color:#F08023"
   id="stop5" />

		<stop
   offset="0.5183"
   style="stop-color:#EF6F24"
   id="stop6" />

		<stop
   offset="0.6533"
   style="stop-color:#EE6225"
   id="stop7" />

		<stop
   offset="0.8021"
   style="stop-color:#ED5925"
   id="stop8" />

		<stop
   offset="0.991"
   style="stop-color:#ED5625"
   id="stop9" />

		<stop
   offset="1"
   style="stop-color:#ED5625"
   id="stop10" />

	</linearGradient>
    <linearGradient
       id="SVGID_00000103943942452091415110000007154351823919876482_"
       gradientUnits="userSpaceOnUse"
       x1="32.355499"
       y1="126.7316"
       x2="105.2816"
       y2="126.7316">
		<stop
   offset="0.2768"
   style="stop-color:#FFFFFF;stop-opacity:0"
   id="stop11" />

		<stop
   offset="0.3255"
   style="stop-color:#ECEBEB;stop-opacity:1.133391e-02"
   id="stop12" />

		<stop
   offset="0.4001"
   style="stop-color:#CCC9C9;stop-opacity:2.873149e-02"
   id="stop13" />

		<stop
   offset="0.4915"
   style="stop-color:#9F9B9B;stop-opacity:5.003719e-02"
   id="stop14" />

		<stop
   offset="0.5961"
   style="stop-color:#696565;stop-opacity:7.441244e-02"
   id="stop15" />

		<stop
   offset="0.7103"
   style="stop-color:#353232;stop-opacity:0.101"
   id="stop16" />

		<stop
   offset="0.7917"
   style="stop-color:#0A0608;stop-opacity:0.12"
   id="stop17" />

		<stop
   offset="0.905"
   style="stop-color:#0A0608;stop-opacity:0.23"
   id="stop18" />

	</linearGradient>
    <linearGradient
       id="SVGID_00000121986619236504051870000014686236535629516672_"
       gradientUnits="userSpaceOnUse"
       x1="109.5065"
       y1="123.8552"
       x2="135.5329"
       y2="123.8552">
		<stop
   offset="0.1078"
   style="stop-color:#0A0608;stop-opacity:0.23"
   id="stop19" />

		<stop
   offset="0.2389"
   style="stop-color:#0A0608;stop-opacity:0.2"
   id="stop20" />

		<stop
   offset="0.307"
   style="stop-color:#1A1718;stop-opacity:0.1787"
   id="stop21" />

		<stop
   offset="0.439"
   style="stop-color:#3B3737;stop-opacity:0.1373"
   id="stop22" />

		<stop
   offset="0.6216"
   style="stop-color:#757070;stop-opacity:8.006563e-02"
   id="stop23" />

		<stop
   offset="0.8459"
   style="stop-color:#E4E2E2;stop-opacity:9.770498e-03"
   id="stop24" />

		<stop
   offset="0.8771"
   style="stop-color:#FFFFFF;stop-opacity:0"
   id="stop25" />

	</linearGradient>
  </defs>
  <g
     id="layer1"
     transform="translate(-71.966667,-33.072918)">
    <g
       id="g25"
       transform="matrix(0.26458333,0,0,0.26458333,64.759707,24.050626)">
	<linearGradient
   id="linearGradient35"
   gradientUnits="userSpaceOnUse"
   x1="27.197901"
   y1="90.166"
   x2="135.5341"
   y2="90.166">
		<stop
   offset="0"
   style="stop-color:#FCDA00"
   id="stop26" />

		<stop
   offset="4.129634e-02"
   style="stop-color:#FACE0C"
   id="stop27" />

		<stop
   offset="0.1529"
   style="stop-color:#F6AF1C"
   id="stop28" />

		<stop
   offset="0.27"
   style="stop-color:#F39521"
   id="stop29" />

		<stop
   offset="0.3913"
   style="stop-color:#F08023"
   id="stop30" />

		<stop
   offset="0.5183"
   style="stop-color:#EF6F24"
   id="stop31" />

		<stop
   offset="0.6533"
   style="stop-color:#EE6225"
   id="stop32" />

		<stop
   offset="0.8021"
   style="stop-color:#ED5925"
   id="stop33" />

		<stop
   offset="0.991"
   style="stop-color:#ED5625"
   id="stop34" />

		<stop
   offset="1"
   style="stop-color:#ED5625"
   id="stop35" />

	</linearGradient>

	<path
   class="st0"
   d="m 133,127.6 c -2,-2.6 -5.2,-4.8 -7.7,-6.5 -5.4,-3.6 -10.4,-6.2 -15.8,-8.2 L 84,42.4 c -0.1,-0.5 -0.7,-2.2 -2,-4 -2.1,-2.8 -4.9,-4.3 -8,-4.3 -3.2,0 -6,1.5 -8,4.3 -1.3,1.8 -1.9,3.5 -2,4 L 27.4,142.6 c -0.5,1.4 0.2,3 1.6,3.5 0.3,0.1 0.6,0.2 0.9,0.2 0.9,0 1.7,-0.4 2.2,-1.1 0.1,-0.1 0.2,-0.2 0.2,-0.3 5.4,-9.2 13.2,-16.9 22.4,-22.3 9.5,-5.5 20.4,-8.5 31.5,-8.5 5,0 10,0.6 14.8,1.8 v 0 c 1.5,0.4 2.9,0.8 4.3,1.3 l 4.7,12.9 v 0 c 0,0.1 1.9,5 3.2,8.4 1.6,4 4.5,6.6 8.2,7.5 0.8,0.2 1.6,0.3 2.3,0.3 3,0 6,-1.2 8.2,-3.3 2.3,-2.2 3.6,-4.9 3.6,-8 0.1,-2.7 -0.8,-5.4 -2.5,-7.4 z m -81,-9.7 c -5,2.9 -9.6,6.5 -13.7,10.5 L 69,44 c 0,0 0.5,-1.3 1.3,-2.5 0.9,-1.3 2,-2 3.6,-2 1.6,0 2.7,0.7 3.6,2 0.9,1.2 1.3,2.4 1.3,2.5 l 24.2,66.7 c -5.4,-1.4 -11,-2.1 -16.7,-2.1 -12.1,0.1 -23.9,3.3 -34.3,9.3 z m 76.2,21.1 c -1.6,1.5 -3.8,2.2 -5.7,1.7 -1.9,-0.4 -3.4,-1.9 -4.3,-4.2 -1.3,-3.3 -3.1,-8 -3.2,-8.3 l -3,-8.4 c 3.4,1.6 6.8,3.5 10.3,5.8 2.2,1.5 4.9,3.4 6.4,5.3 1.4,1.8 2.4,5.3 -0.5,8.1 z"
   id="path10"
   style="fill:url(#SVGID_1_)" />

	
		<linearGradient
   id="linearGradient43"
   gradientUnits="userSpaceOnUse"
   x1="32.355499"
   y1="126.7316"
   x2="105.2816"
   y2="126.7316">
		<stop
   offset="0.2768"
   style="stop-color:#FFFFFF;stop-opacity:0"
   id="stop36" />

		<stop
   offset="0.3255"
   style="stop-color:#ECEBEB;stop-opacity:1.133391e-02"
   id="stop37" />

		<stop
   offset="0.4001"
   style="stop-color:#CCC9C9;stop-opacity:2.873149e-02"
   id="stop38" />

		<stop
   offset="0.4915"
   style="stop-color:#9F9B9B;stop-opacity:5.003719e-02"
   id="stop39" />

		<stop
   offset="0.5961"
   style="stop-color:#696565;stop-opacity:7.441244e-02"
   id="stop40" />

		<stop
   offset="0.7103"
   style="stop-color:#353232;stop-opacity:0.101"
   id="stop41" />

		<stop
   offset="0.7917"
   style="stop-color:#0A0608;stop-opacity:0.12"
   id="stop42" />

		<stop
   offset="0.905"
   style="stop-color:#0A0608;stop-opacity:0.23"
   id="stop43" />

	</linearGradient>

	<path
   style="fill:url(#SVGID_00000103943942452091415110000007154351823919876482_)"
   d="m 86.2,108.7 c -12,0 -23.9,3.2 -34.2,9.2 -5,2.9 -9.6,6.5 -13.7,10.5 l -0.8,2.2 -5.2,14.2 c 5.4,-9.2 13.2,-16.9 22.4,-22.2 9.5,-5.5 20.4,-8.5 31.5,-8.5 5,0 10,0.6 14.8,1.8 v 0 c 1.5,0.4 2.9,0.8 4.3,1.3 l -2.3,-6.4 c -5.4,-1.4 -11.1,-2.1 -16.8,-2.1 z"
   id="path18" />

	
		<linearGradient
   id="linearGradient50"
   gradientUnits="userSpaceOnUse"
   x1="109.5065"
   y1="123.8552"
   x2="135.5329"
   y2="123.8552">
		<stop
   offset="0.1078"
   style="stop-color:#0A0608;stop-opacity:0.23"
   id="stop44" />

		<stop
   offset="0.2389"
   style="stop-color:#0A0608;stop-opacity:0.2"
   id="stop45" />

		<stop
   offset="0.307"
   style="stop-color:#1A1718;stop-opacity:0.1787"
   id="stop46" />

		<stop
   offset="0.439"
   style="stop-color:#3B3737;stop-opacity:0.1373"
   id="stop47" />

		<stop
   offset="0.6216"
   style="stop-color:#757070;stop-opacity:8.006563e-02"
   id="stop48" />

		<stop
   offset="0.8459"
   style="stop-color:#E4E2E2;stop-opacity:9.770498e-03"
   id="stop49" />

		<stop
   offset="0.8771"
   style="stop-color:#FFFFFF;stop-opacity:0"
   id="stop50" />

	</linearGradient>

	<path
   style="fill:url(#SVGID_00000121986619236504051870000014686236535629516672_)"
   d="m 133,127.6 c -2,-2.6 -5.2,-4.8 -7.7,-6.5 -5.4,-3.6 -10.4,-6.2 -15.8,-8.2 l 2.5,6.9 v 0 c 3.4,1.6 6.8,3.5 10.3,5.8 2.2,1.5 4.9,3.4 6.4,5.3 0.7,0.9 1.3,2.4 1.3,3.9 h 5.4 c 0.1,-2.6 -0.8,-5.2 -2.4,-7.2 z"
   id="path25" />

</g>
  </g>
</svg>
